<svg xmlns="http://www.w3.org/2000/svg" xmlns:xlink="http://www.w3.org/1999/xlink" width="500" zoomAndPan="magnify" viewBox="0 0 375 374.999991" height="500" preserveAspectRatio="xMidYMid meet" version="1.0"><defs><clipPath id="8e2e85432d"><path d="M 85 93.421875 L 300 93.421875 L 300 281.671875 L 85 281.671875 Z M 85 93.421875 " clip-rule="nonzero"/></clipPath></defs><g clip-path="url(#8e2e85432d)"><path fill="#c7ede6" d="M 289.941406 205.066406 C 292.816406 199.3125 294.644531 193.039062 294.644531 186.238281 C 294.644531 168.984375 283.667969 154.082031 268.511719 148.328125 C 268.511719 118 243.945312 93.421875 213.632812 93.421875 C 188.023438 93.421875 166.59375 110.941406 160.582031 134.730469 C 156.664062 133.425781 152.742188 132.640625 148.300781 132.640625 C 128.179688 132.640625 111.714844 147.804688 109.363281 167.414062 C 95.773438 170.289062 85.582031 182.316406 85.582031 196.699219 C 85.582031 213.429688 98.910156 226.765625 115.632812 226.765625 C 116.15625 226.765625 116.679688 226.765625 116.941406 226.765625 C 116.941406 227.289062 116.941406 227.550781 116.941406 228.074219 C 116.941406 257.617188 140.984375 281.671875 170.511719 281.671875 C 187.238281 281.671875 202.394531 273.828125 212.066406 261.800781 C 217.8125 267.554688 225.652344 271.214844 234.539062 271.214844 C 246.820312 271.214844 257.273438 264.152344 262.5 254.21875 C 265.375 255.003906 268.25 255.527344 271.125 255.527344 C 287.066406 255.527344 299.871094 242.714844 299.871094 226.765625 C 299.871094 218.136719 295.949219 210.292969 289.941406 205.066406 Z M 289.941406 205.066406 " fill-opacity="1" fill-rule="nonzero"/></g><path fill="#fdfcef" d="M 270.863281 225.457031 C 270.863281 225.457031 280.269531 225.457031 286.804688 225.457031 C 293.335938 225.457031 298.5625 220.230469 298.5625 213.691406 C 298.5625 207.679688 293.859375 202.710938 287.851562 201.925781 C 287.851562 201.402344 288.109375 200.882812 288.109375 200.621094 C 288.109375 194.082031 282.882812 188.855469 276.351562 188.855469 C 272.691406 188.855469 269.296875 190.683594 267.203125 193.300781 C 266.945312 186.5 261.195312 181.011719 254.136719 181.011719 C 246.820312 181.011719 241.070312 186.761719 241.070312 194.082031 C 241.070312 195.128906 241.332031 196.4375 241.59375 197.480469 C 239.765625 195.390625 237.414062 194.082031 234.539062 194.082031 C 229.835938 194.082031 226.175781 197.480469 225.390625 202.1875 C 224.871094 202.1875 224.347656 201.925781 224.085938 201.925781 C 217.550781 201.925781 212.324219 207.15625 212.324219 213.691406 C 212.324219 220.230469 217.550781 225.457031 224.085938 225.457031 C 230.617188 225.457031 248.910156 225.457031 248.910156 225.457031 L 263.023438 225.457031 L 263.023438 226.765625 L 270.863281 226.765625 Z M 270.863281 225.457031 " fill-opacity="1" fill-rule="nonzero"/><path fill="#472b29" d="M 254.136719 179.703125 C 246.296875 179.703125 239.765625 186.238281 239.765625 194.082031 C 238.199219 193.039062 236.367188 192.777344 234.539062 192.777344 C 229.835938 192.777344 225.652344 196.175781 224.347656 200.621094 C 224.347656 200.621094 224.085938 200.621094 224.085938 200.621094 C 216.769531 200.621094 211.019531 206.371094 211.019531 213.691406 C 211.019531 221.011719 216.769531 226.765625 224.085938 226.765625 L 263.023438 226.765625 C 263.808594 226.765625 264.332031 226.242188 264.332031 225.457031 C 264.332031 224.675781 263.808594 224.152344 263.023438 224.152344 L 224.085938 224.152344 C 218.335938 224.152344 213.632812 219.445312 213.632812 213.691406 C 213.632812 207.941406 218.335938 203.234375 224.085938 203.234375 C 224.347656 203.234375 224.609375 203.234375 224.871094 203.234375 L 225.132812 203.234375 C 225.132812 203.234375 225.132812 203.234375 225.390625 203.234375 C 225.914062 203.234375 226.699219 202.710938 226.699219 202.1875 C 227.222656 198.265625 230.617188 195.390625 234.539062 195.390625 C 236.890625 195.390625 238.980469 196.4375 240.550781 198.265625 C 240.8125 198.527344 241.070312 198.789062 241.59375 198.789062 C 241.855469 198.789062 242.117188 198.789062 242.117188 198.527344 C 242.640625 198.265625 242.902344 197.742188 242.902344 196.960938 C 242.640625 195.914062 242.378906 194.867188 242.378906 193.820312 C 242.378906 187.285156 247.605469 182.054688 254.140625 182.054688 C 260.410156 182.054688 265.375 187.023438 265.898438 193.300781 C 265.898438 193.820312 266.421875 194.34375 266.683594 194.605469 C 266.945312 194.605469 266.945312 194.605469 267.207031 194.605469 C 267.726562 194.605469 267.988281 194.34375 268.25 194.082031 C 270.339844 191.46875 273.214844 190.160156 276.351562 190.160156 C 282.101562 190.160156 286.804688 194.867188 286.804688 200.621094 C 286.804688 200.882812 286.804688 201.144531 286.804688 201.402344 L 286.804688 201.664062 C 286.804688 201.925781 286.804688 202.449219 287.066406 202.710938 C 287.328125 202.972656 287.589844 203.234375 287.851562 203.234375 C 293.339844 203.757812 297.257812 208.203125 297.257812 213.691406 C 297.257812 219.445312 292.554688 224.152344 286.804688 224.152344 L 270.863281 224.152344 C 270.078125 224.152344 269.558594 224.675781 269.558594 225.457031 C 269.558594 226.242188 270.078125 226.765625 270.863281 226.765625 L 286.804688 226.765625 C 294.121094 226.765625 299.871094 221.011719 299.871094 213.691406 C 299.871094 207.417969 295.429688 202.1875 289.417969 200.882812 C 289.417969 200.882812 289.417969 200.621094 289.417969 200.621094 C 289.417969 193.300781 283.667969 187.546875 276.351562 187.546875 C 273.214844 187.546875 270.339844 188.59375 267.988281 190.683594 C 266.421875 184.410156 260.933594 179.703125 254.136719 179.703125 Z M 254.136719 179.703125 " fill-opacity="1" fill-rule="nonzero"/><path fill="#472b29" d="M 250.21875 198.003906 C 246.558594 198.003906 243.425781 200.621094 242.640625 204.019531 C 241.59375 203.496094 240.550781 203.234375 239.503906 203.234375 C 236.367188 203.234375 233.753906 205.585938 233.230469 208.726562 C 232.710938 208.726562 232.1875 208.464844 231.664062 208.464844 C 227.746094 208.464844 224.347656 211.601562 224.085938 215.523438 C 224.085938 215.785156 224.347656 216.308594 224.609375 216.308594 C 224.871094 216.308594 225.132812 216.046875 225.132812 215.785156 C 225.390625 212.386719 228.265625 209.769531 231.402344 209.769531 C 231.925781 209.769531 232.710938 209.769531 233.230469 210.03125 C 233.230469 210.03125 233.230469 210.03125 233.492188 210.03125 C 233.753906 210.03125 233.753906 210.03125 234.015625 209.769531 C 234.277344 209.769531 234.277344 209.507812 234.277344 209.246094 C 234.277344 206.632812 236.367188 204.28125 239.242188 204.28125 C 240.289062 204.28125 241.59375 204.804688 242.378906 205.585938 C 242.378906 205.585938 242.640625 205.847656 242.902344 205.847656 C 242.902344 205.847656 243.164062 205.847656 243.164062 205.847656 C 243.425781 205.847656 243.425781 205.585938 243.683594 205.324219 C 243.945312 201.925781 246.820312 199.3125 250.21875 199.3125 C 250.742188 199.3125 251.265625 199.3125 252.046875 199.574219 C 252.046875 199.574219 252.046875 199.574219 252.308594 199.574219 C 252.570312 199.574219 252.832031 199.3125 252.832031 199.050781 C 252.832031 198.789062 252.832031 198.265625 252.308594 198.265625 C 251.523438 198.003906 251.003906 198.003906 250.21875 198.003906 Z M 286.542969 201.925781 C 283.144531 201.925781 280.011719 204.28125 278.964844 207.679688 C 278.964844 207.941406 278.964844 208.464844 279.488281 208.464844 C 279.488281 208.464844 279.488281 208.464844 279.75 208.464844 C 280.011719 208.464844 280.269531 208.203125 280.269531 207.941406 C 281.054688 205.066406 283.667969 203.234375 286.542969 203.234375 C 286.804688 203.234375 287.066406 203.234375 287.328125 203.234375 C 287.589844 203.234375 287.851562 202.972656 287.851562 202.710938 C 287.851562 202.449219 287.589844 201.925781 287.328125 201.925781 C 287.328125 201.925781 286.804688 201.925781 286.542969 201.925781 Z M 286.542969 201.925781 " fill-opacity="1" fill-rule="nonzero"/><path fill="#ffffff" d="M 102.308594 190.160156 L 76.433594 190.160156 C 75.652344 190.160156 75.128906 189.636719 75.128906 188.855469 C 75.128906 188.070312 75.652344 187.546875 76.433594 187.546875 L 102.308594 187.546875 C 103.089844 187.546875 103.613281 188.070312 103.613281 188.855469 C 103.613281 189.636719 103.089844 190.160156 102.308594 190.160156 Z M 110.40625 190.160156 L 107.792969 190.160156 C 107.011719 190.160156 106.488281 189.636719 106.488281 188.855469 C 106.488281 188.070312 107.011719 187.546875 107.792969 187.546875 L 110.40625 187.546875 C 111.191406 187.546875 111.714844 188.070312 111.714844 188.855469 C 111.714844 189.636719 111.191406 190.160156 110.40625 190.160156 Z M 123.472656 195.390625 L 99.953125 195.390625 C 99.171875 195.390625 98.648438 194.867188 98.648438 194.082031 C 98.648438 193.300781 99.171875 192.777344 99.953125 192.777344 L 123.472656 192.777344 C 124.257812 192.777344 124.78125 193.300781 124.78125 194.082031 C 124.78125 194.867188 124.257812 195.390625 123.472656 195.390625 Z M 94.726562 195.390625 L 92.113281 195.390625 C 91.332031 195.390625 90.808594 194.867188 90.808594 194.082031 C 90.808594 193.300781 91.332031 192.777344 92.113281 192.777344 L 94.726562 192.777344 C 95.511719 192.777344 96.035156 193.300781 96.035156 194.082031 C 96.035156 194.867188 95.511719 195.390625 94.726562 195.390625 Z M 86.886719 195.390625 L 81.660156 195.390625 C 80.878906 195.390625 80.355469 194.867188 80.355469 194.082031 C 80.355469 193.300781 80.878906 192.777344 81.660156 192.777344 L 86.886719 192.777344 C 87.671875 192.777344 88.195312 193.300781 88.195312 194.082031 C 88.195312 194.867188 87.671875 195.390625 86.886719 195.390625 Z M 102.566406 200.621094 L 97.339844 200.621094 C 96.558594 200.621094 96.035156 200.097656 96.035156 199.3125 C 96.035156 198.527344 96.558594 198.003906 97.339844 198.003906 L 102.566406 198.003906 C 103.351562 198.003906 103.875 198.527344 103.875 199.3125 C 103.875 200.097656 103.351562 200.621094 102.566406 200.621094 Z M 110.40625 177.089844 C 109.886719 177.089844 108.316406 177.089844 107.792969 177.089844 C 107.011719 177.089844 106.488281 177.613281 106.488281 178.394531 C 106.488281 179.179688 107.011719 179.703125 107.792969 179.703125 C 108.316406 179.703125 109.886719 179.703125 110.40625 179.703125 C 111.191406 179.703125 111.714844 179.179688 111.714844 178.394531 C 111.714844 177.613281 111.191406 177.089844 110.40625 177.089844 Z M 110.40625 182.316406 C 109.886719 182.316406 97.863281 182.316406 97.339844 182.316406 C 96.558594 182.316406 96.035156 182.839844 96.035156 183.625 C 96.035156 184.410156 96.558594 184.933594 97.339844 184.933594 C 97.863281 184.933594 109.886719 184.933594 110.40625 184.933594 C 111.191406 184.933594 111.714844 184.410156 111.714844 183.625 C 111.714844 182.839844 111.191406 182.316406 110.40625 182.316406 Z M 123.472656 187.546875 C 122.953125 187.546875 116.15625 187.546875 115.632812 187.546875 C 114.851562 187.546875 114.328125 188.070312 114.328125 188.855469 C 114.328125 189.636719 114.851562 190.160156 115.632812 190.160156 C 116.15625 190.160156 122.953125 190.160156 123.472656 190.160156 C 124.257812 190.160156 124.78125 189.636719 124.78125 188.855469 C 124.78125 188.070312 124.257812 187.546875 123.472656 187.546875 Z M 123.472656 187.546875 " fill-opacity="1" fill-rule="nonzero"/><path fill="#ffffff" d="M 238.457031 114.339844 L 212.324219 114.339844 C 211.542969 114.339844 211.019531 113.816406 211.019531 113.03125 C 211.019531 112.246094 211.542969 111.722656 212.324219 111.722656 L 238.457031 111.722656 C 239.242188 111.722656 239.765625 112.246094 239.765625 113.03125 C 239.765625 113.816406 239.242188 114.339844 238.457031 114.339844 Z M 248.910156 114.339844 L 243.683594 114.339844 C 242.902344 114.339844 242.378906 113.816406 242.378906 113.03125 C 242.378906 112.246094 242.902344 111.722656 243.683594 111.722656 L 248.910156 111.722656 C 249.695312 111.722656 250.21875 112.246094 250.21875 113.03125 C 250.21875 113.816406 249.695312 114.339844 248.910156 114.339844 Z M 261.976562 119.566406 L 235.84375 119.566406 C 235.0625 119.566406 234.539062 119.042969 234.539062 118.261719 C 234.539062 117.476562 235.0625 116.953125 235.84375 116.953125 L 261.976562 116.953125 C 262.761719 116.953125 263.285156 117.476562 263.285156 118.261719 C 263.285156 119.042969 262.761719 119.566406 261.976562 119.566406 Z M 230.617188 119.566406 L 228.003906 119.566406 C 227.222656 119.566406 226.699219 119.042969 226.699219 118.261719 C 226.699219 117.476562 227.222656 116.953125 228.003906 116.953125 L 230.617188 116.953125 C 231.402344 116.953125 231.925781 117.476562 231.925781 118.261719 C 231.925781 119.042969 231.402344 119.566406 230.617188 119.566406 Z M 222.519531 119.566406 L 217.550781 119.566406 C 216.769531 119.566406 216.246094 119.042969 216.246094 118.261719 C 216.246094 117.476562 216.769531 116.953125 217.550781 116.953125 L 222.519531 116.953125 C 223.300781 116.953125 223.824219 117.476562 223.824219 118.261719 C 223.824219 119.042969 223.300781 119.566406 222.519531 119.566406 Z M 246.296875 109.109375 L 233.230469 109.109375 C 232.449219 109.109375 231.925781 108.585938 231.925781 107.800781 C 231.925781 107.019531 232.449219 106.496094 233.230469 106.496094 L 246.296875 106.496094 C 247.082031 106.496094 247.605469 107.019531 247.605469 107.800781 C 247.605469 108.585938 247.082031 109.109375 246.296875 109.109375 Z M 238.457031 124.796875 L 233.230469 124.796875 C 232.449219 124.796875 231.925781 124.273438 231.925781 123.488281 C 231.925781 122.707031 232.449219 122.183594 233.230469 122.183594 L 238.457031 122.183594 C 239.242188 122.183594 239.765625 122.707031 239.765625 123.488281 C 239.765625 124.273438 239.242188 124.796875 238.457031 124.796875 Z M 238.457031 124.796875 " fill-opacity="1" fill-rule="nonzero"/><path fill="#472b29" d="M 144.121094 237.222656 L 141.765625 237.222656 C 140.984375 237.222656 140.460938 236.699219 140.460938 235.917969 C 140.460938 235.132812 140.984375 234.609375 141.765625 234.609375 L 144.121094 234.609375 C 144.902344 234.609375 145.425781 235.132812 145.425781 235.917969 C 145.425781 236.699219 144.902344 237.222656 144.121094 237.222656 Z M 144.121094 237.222656 " fill-opacity="1" fill-rule="nonzero"/><path fill="#a1d3a2" d="M 251.265625 172.644531 L 251.265625 223.628906 C 251.265625 234.347656 242.378906 243.238281 231.664062 243.238281 L 159.015625 243.238281 C 148.300781 243.238281 139.414062 234.347656 139.414062 223.628906 L 139.414062 151.464844 C 139.414062 140.746094 148.300781 131.855469 159.015625 131.855469 L 231.664062 131.855469 C 240.550781 131.855469 248.128906 137.871094 250.480469 146.238281 " fill-opacity="1" fill-rule="nonzero"/><path fill="#472b29" d="M 231.664062 245.066406 L 159.015625 245.066406 C 147.253906 245.066406 137.585938 235.394531 137.585938 223.628906 L 137.585938 151.464844 C 137.585938 139.699219 147.253906 130.027344 159.015625 130.027344 L 231.664062 130.027344 C 241.332031 130.027344 249.695312 136.5625 252.308594 145.714844 C 252.570312 146.757812 252.046875 147.804688 251.003906 148.066406 C 249.957031 148.328125 248.910156 147.804688 248.652344 146.757812 C 246.558594 139.175781 239.503906 133.6875 231.664062 133.6875 L 159.015625 133.6875 C 149.347656 133.6875 141.246094 141.53125 141.246094 151.464844 L 141.246094 223.367188 C 141.246094 233.039062 149.085938 241.144531 159.015625 241.144531 L 231.664062 241.144531 C 241.332031 241.144531 249.433594 233.300781 249.433594 223.367188 L 249.433594 172.644531 C 249.433594 171.597656 250.21875 170.8125 251.265625 170.8125 C 252.308594 170.8125 253.09375 171.597656 253.09375 172.644531 L 253.09375 223.628906 C 253.09375 235.394531 243.425781 245.066406 231.664062 245.066406 Z M 231.664062 245.066406 " fill-opacity="1" fill-rule="nonzero"/><path fill="#472b29" d="M 241.070312 210.816406 C 240.289062 210.816406 239.765625 210.292969 239.765625 209.507812 L 239.765625 199.835938 C 239.765625 199.050781 240.289062 198.527344 241.070312 198.527344 C 241.855469 198.527344 242.378906 199.050781 242.378906 199.835938 L 242.378906 209.507812 C 242.378906 210.292969 241.855469 210.816406 241.070312 210.816406 Z M 241.070312 210.816406 " fill-opacity="1" fill-rule="nonzero"/><path fill="#472b29" d="M 241.070312 193.820312 C 240.289062 193.820312 239.765625 193.300781 239.765625 192.515625 L 239.765625 187.546875 C 239.765625 186.761719 240.289062 186.238281 241.070312 186.238281 C 241.855469 186.238281 242.378906 186.761719 242.378906 187.546875 L 242.378906 192.515625 C 242.378906 193.300781 241.855469 193.820312 241.070312 193.820312 Z M 241.070312 193.820312 " fill-opacity="1" fill-rule="nonzero"/><path fill="#472b29" d="M 229.835938 234.347656 L 160.84375 234.347656 C 154.050781 234.347656 148.300781 228.855469 148.300781 222.058594 L 148.300781 152.773438 C 148.300781 145.976562 153.789062 140.484375 160.84375 140.484375 L 223.5625 140.484375 C 224.347656 140.484375 224.871094 141.007812 224.871094 141.792969 C 224.871094 142.574219 224.085938 143.097656 223.5625 143.097656 L 160.84375 143.097656 C 155.355469 143.097656 150.914062 147.542969 150.914062 152.773438 L 150.914062 221.796875 C 150.914062 227.289062 155.355469 231.472656 160.84375 231.472656 L 230.097656 231.472656 C 235.585938 231.472656 240.027344 227.027344 240.027344 221.796875 L 240.027344 216.046875 C 240.027344 215.261719 240.550781 214.738281 241.332031 214.738281 C 242.117188 214.738281 242.640625 215.261719 242.640625 216.046875 L 242.640625 221.796875 C 242.378906 228.855469 236.890625 234.347656 229.835938 234.347656 Z M 229.835938 234.347656 " fill-opacity="1" fill-rule="nonzero"/><path fill="#00ac9c" d="M 194.816406 217.613281 C 194.554688 217.613281 194.292969 217.613281 194.292969 217.613281 C 193.25 217.613281 192.464844 217.351562 191.679688 216.570312 L 171.035156 196.4375 C 170.253906 195.652344 169.992188 194.867188 169.992188 193.820312 C 169.992188 192.777344 170.253906 191.992188 171.035156 191.207031 C 171.820312 190.421875 172.605469 190.160156 173.648438 190.160156 C 174.695312 190.160156 175.480469 190.421875 176.261719 191.207031 L 194.03125 209.507812 L 253.617188 152.511719 C 254.398438 151.726562 255.183594 151.464844 256.230469 151.464844 C 257.273438 151.464844 258.058594 151.726562 258.84375 152.511719 C 259.625 153.296875 259.886719 154.082031 259.886719 155.125 C 259.886719 156.171875 259.625 156.957031 258.84375 157.742188 L 197.691406 216.570312 C 197.429688 216.832031 197.167969 217.089844 196.644531 217.351562 C 196.644531 217.351562 196.386719 217.351562 196.386719 217.613281 C 196.125 217.613281 195.863281 217.613281 195.601562 217.875 C 195.339844 217.613281 195.078125 217.613281 194.816406 217.613281 Z M 194.816406 217.613281 " fill-opacity="1" fill-rule="nonzero"/><path fill="#472b29" d="M 255.96875 152.511719 C 256.492188 152.511719 257.273438 152.773438 257.796875 153.296875 C 258.84375 154.339844 258.84375 155.648438 257.796875 156.695312 L 196.644531 215.523438 C 196.386719 215.785156 196.125 215.785156 196.125 216.046875 C 196.125 216.046875 195.863281 216.046875 195.863281 216.046875 C 195.601562 216.046875 195.601562 216.046875 195.339844 216.046875 C 195.339844 216.046875 195.078125 216.046875 195.078125 216.046875 C 195.078125 216.046875 194.816406 216.046875 194.816406 216.046875 C 194.554688 216.046875 194.554688 216.046875 194.292969 216.046875 C 193.773438 216.046875 192.988281 215.785156 192.726562 215.261719 L 171.820312 195.390625 C 170.773438 194.34375 170.773438 193.039062 171.820312 191.992188 C 172.34375 191.46875 172.867188 191.207031 173.648438 191.207031 C 174.433594 191.207031 174.957031 191.46875 175.480469 191.992188 L 194.03125 211.078125 L 254.398438 153.035156 C 254.921875 152.773438 255.445312 152.511719 255.96875 152.511719 M 255.96875 149.898438 C 254.660156 149.898438 253.355469 150.417969 252.308594 151.464844 L 194.03125 207.417969 L 177.308594 190.160156 C 176.261719 189.117188 174.957031 188.59375 173.648438 188.59375 C 172.34375 188.59375 171.035156 189.117188 169.992188 190.160156 C 168.945312 191.207031 168.421875 192.253906 168.421875 193.820312 C 168.421875 195.128906 168.945312 196.4375 169.992188 197.480469 L 190.636719 217.613281 C 191.679688 218.398438 192.726562 218.921875 194.03125 218.921875 C 194.03125 218.921875 194.292969 218.921875 194.292969 218.921875 C 194.554688 218.921875 194.554688 218.921875 194.816406 218.921875 C 195.078125 218.921875 195.339844 218.921875 195.601562 218.921875 C 195.863281 218.921875 196.125 218.921875 196.386719 218.660156 C 196.644531 218.660156 196.90625 218.398438 196.90625 218.398438 C 197.429688 218.136719 197.953125 217.875 198.214844 217.351562 L 259.363281 158.261719 C 260.410156 157.21875 260.933594 156.171875 260.933594 154.601562 C 260.933594 153.035156 260.410156 151.988281 259.363281 150.941406 C 258.582031 150.417969 257.535156 149.898438 255.96875 149.898438 Z M 255.96875 149.898438 " fill-opacity="1" fill-rule="nonzero"/><path fill="#fdfcef" d="M 160.058594 256.832031 C 160.058594 256.832031 164.242188 256.832031 169.207031 256.832031 C 174.171875 256.832031 178.351562 252.648438 178.351562 247.683594 C 178.351562 242.976562 174.957031 239.316406 170.253906 238.53125 C 170.253906 238.007812 170.511719 237.484375 170.511719 237.222656 C 170.511719 232.257812 166.332031 228.074219 161.367188 228.074219 C 158.753906 228.074219 156.140625 229.378906 154.574219 231.210938 C 153.527344 226.503906 149.347656 222.84375 144.382812 222.84375 C 138.632812 222.84375 133.929688 227.550781 133.929688 233.300781 C 133.929688 233.824219 133.929688 234.347656 134.1875 234.871094 C 133.144531 234.085938 131.574219 233.300781 130.007812 233.300781 C 126.871094 233.300781 124.257812 235.65625 123.476562 238.792969 C 122.953125 238.792969 122.429688 238.53125 122.167969 238.53125 C 117.203125 238.53125 113.023438 242.714844 113.023438 247.683594 C 113.023438 252.648438 117.203125 256.832031 122.167969 256.832031 C 127.132812 256.832031 141.769531 256.832031 141.769531 256.832031 L 141.769531 258.140625 L 160.058594 258.140625 Z M 160.058594 256.832031 " fill-opacity="1" fill-rule="nonzero"/><path fill="#472b29" d="M 164.765625 245.066406 C 164.503906 245.066406 163.980469 244.804688 163.980469 244.285156 C 163.980469 241.144531 166.59375 238.53125 169.730469 238.53125 C 169.730469 238.53125 171.558594 238.53125 172.867188 238.792969 C 173.125 238.792969 173.386719 239.316406 173.386719 239.578125 C 173.386719 239.839844 172.867188 240.101562 172.605469 240.101562 C 171.558594 239.839844 169.730469 239.839844 169.730469 239.839844 C 167.378906 239.839844 165.285156 241.929688 165.285156 244.285156 C 165.285156 244.804688 165.027344 245.066406 164.765625 245.066406 Z M 146.992188 255.527344 C 146.820312 255.527344 146.652344 255.558594 146.492188 255.625 C 146.335938 255.691406 146.191406 255.785156 146.070312 255.910156 C 145.949219 256.03125 145.851562 256.171875 145.785156 256.332031 C 145.71875 256.492188 145.6875 256.660156 145.6875 256.832031 C 145.6875 257.007812 145.71875 257.171875 145.785156 257.332031 C 145.851562 257.492188 145.949219 257.636719 146.070312 257.757812 C 146.191406 257.878906 146.335938 257.976562 146.492188 258.042969 C 146.652344 258.105469 146.820312 258.140625 146.992188 258.140625 C 147.167969 258.140625 147.335938 258.105469 147.496094 258.042969 C 147.652344 257.976562 147.796875 257.878906 147.917969 257.757812 C 148.039062 257.636719 148.136719 257.492188 148.203125 257.332031 C 148.269531 257.171875 148.300781 257.007812 148.300781 256.832031 C 148.300781 256.660156 148.269531 256.492188 148.203125 256.332031 C 148.136719 256.171875 148.039062 256.03125 147.917969 255.910156 C 147.796875 255.785156 147.652344 255.691406 147.496094 255.625 C 147.335938 255.558594 147.167969 255.527344 146.992188 255.527344 Z M 146.992188 255.527344 " fill-opacity="1" fill-rule="nonzero"/><path fill="#472b29" d="M 169.207031 258.140625 L 160.058594 258.140625 C 159.277344 258.140625 158.753906 257.617188 158.753906 256.832031 C 158.753906 256.050781 159.277344 255.527344 160.058594 255.527344 L 169.207031 255.527344 C 173.648438 255.527344 177.046875 252.128906 177.046875 247.683594 C 177.046875 243.761719 174.171875 240.363281 170.253906 239.839844 C 169.992188 239.839844 169.46875 239.578125 169.46875 239.316406 C 169.46875 239.054688 169.207031 238.792969 169.207031 238.269531 C 169.207031 237.746094 169.207031 237.484375 169.207031 236.960938 C 169.207031 232.519531 165.808594 229.117188 161.367188 229.117188 C 159.277344 229.117188 157.1875 230.164062 155.617188 231.734375 C 155.355469 231.996094 154.835938 232.257812 154.3125 231.996094 C 153.789062 231.996094 153.527344 231.472656 153.265625 230.949219 C 152.480469 226.765625 148.5625 223.628906 144.382812 223.628906 C 139.414062 223.628906 135.234375 227.8125 135.234375 232.777344 C 135.234375 233.039062 135.234375 233.5625 135.234375 233.824219 C 135.234375 234.347656 134.972656 234.871094 134.710938 235.132812 C 134.449219 235.394531 133.667969 235.394531 133.144531 235.132812 C 132.359375 235.132812 131.054688 234.609375 130.007812 234.609375 C 127.394531 234.609375 125.304688 236.441406 124.78125 238.792969 C 124.78125 239.578125 123.996094 239.839844 123.214844 239.839844 C 122.691406 239.839844 122.429688 239.839844 121.90625 239.839844 C 117.464844 239.839844 114.066406 243.238281 114.066406 247.683594 C 114.066406 252.128906 117.464844 255.527344 121.90625 255.527344 L 141.507812 255.527344 C 142.289062 255.527344 142.8125 256.050781 142.8125 256.832031 C 142.8125 257.617188 142.550781 258.140625 141.765625 258.140625 L 122.167969 258.140625 C 116.417969 258.140625 111.714844 253.433594 111.714844 247.683594 C 111.714844 241.929688 116.417969 237.222656 122.167969 237.222656 C 122.429688 237.222656 122.429688 237.222656 122.691406 237.222656 C 123.734375 234.085938 126.609375 231.996094 130.007812 231.996094 C 130.792969 231.996094 131.835938 232.257812 132.621094 232.519531 C 133.144531 226.503906 138.109375 221.535156 144.378906 221.535156 C 149.085938 221.535156 153.527344 224.414062 155.355469 228.855469 C 157.1875 227.550781 159.277344 226.765625 161.367188 226.765625 C 167.117188 226.765625 171.820312 231.472656 171.820312 237.222656 C 171.820312 237.222656 171.820312 237.484375 171.820312 237.484375 C 176.261719 238.53125 179.660156 242.714844 179.660156 247.683594 C 179.660156 253.433594 174.957031 258.140625 169.207031 258.140625 Z M 169.207031 258.140625 " fill-opacity="1" fill-rule="nonzero"/><path fill="#472b29" d="M 154.832031 255.527344 C 154.3125 255.527344 152.742188 255.527344 152.21875 255.527344 C 151.4375 255.527344 150.914062 256.050781 150.914062 256.832031 C 150.914062 257.617188 151.4375 258.140625 152.21875 258.140625 C 152.742188 258.140625 154.3125 258.140625 154.832031 258.140625 C 155.617188 258.140625 156.140625 257.617188 156.140625 256.832031 C 156.140625 256.050781 155.617188 255.527344 154.832031 255.527344 Z M 154.832031 255.527344 " fill-opacity="1" fill-rule="nonzero"/></svg>