<svg xmlns="http://www.w3.org/2000/svg" xmlns:xlink="http://www.w3.org/1999/xlink" width="500" zoomAndPan="magnify" viewBox="0 0 375 374.999991" height="500" preserveAspectRatio="xMidYMid meet" version="1.0"><defs><g/><clipPath id="fda08fe8ff"><path d="M 149.394531 208 L 207.894531 208 L 207.894531 272.457031 L 149.394531 272.457031 Z M 149.394531 208 " clip-rule="nonzero"/></clipPath></defs><g clip-path="url(#fda08fe8ff)"><path fill="#000000" d="M 158.664062 208.289062 C 158.46875 208.289062 158.285156 208.328125 158.109375 208.402344 C 157.929688 208.476562 157.773438 208.578125 157.636719 208.714844 C 157.503906 208.851562 157.398438 209.007812 157.324219 209.1875 C 157.25 209.363281 157.214844 209.550781 157.214844 209.742188 L 157.214844 230.050781 C 157.214844 230.246094 157.25 230.429688 157.324219 230.609375 C 157.398438 230.785156 157.503906 230.941406 157.636719 231.078125 C 157.773438 231.214844 157.929688 231.320312 158.109375 231.394531 C 158.285156 231.464844 158.46875 231.503906 158.664062 231.503906 L 164.453125 231.503906 L 164.453125 252.613281 L 158.753906 246.902344 C 156.925781 245.070312 153.914062 244.695312 151.828125 246.40625 C 149.5 248.316406 149.355469 251.847656 151.445312 253.9375 L 166.679688 269.160156 C 168.578125 271.058594 171.15625 272.125 173.839844 272.125 L 186.175781 272.125 C 191.757812 272.125 196.3125 267.5625 196.3125 261.96875 L 196.3125 248.394531 C 196.3125 245.800781 194.445312 243.402344 191.761719 243.136719 C 190.554688 243.015625 189.472656 243.414062 188.539062 244.027344 C 187.957031 242.109375 186.644531 240.449219 184.519531 240.234375 C 183.132812 240.09375 181.863281 240.574219 180.867188 241.382812 C 180.082031 240.039062 178.945312 238.949219 177.28125 238.78125 C 176.300781 238.683594 175.410156 238.953125 174.589844 239.359375 L 174.589844 231.503906 L 178.933594 231.503906 C 179.125 231.503906 179.3125 231.464844 179.488281 231.394531 C 179.667969 231.320312 179.824219 231.214844 179.957031 231.078125 C 180.09375 230.941406 180.199219 230.785156 180.273438 230.609375 C 180.347656 230.429688 180.382812 230.246094 180.382812 230.050781 L 180.382812 209.742188 C 180.382812 209.550781 180.347656 209.363281 180.273438 209.1875 C 180.199219 209.007812 180.09375 208.851562 179.957031 208.714844 C 179.824219 208.578125 179.667969 208.476562 179.488281 208.402344 C 179.3125 208.328125 179.125 208.289062 178.933594 208.289062 Z M 186.175781 208.289062 C 185.984375 208.289062 185.796875 208.328125 185.621094 208.402344 C 185.441406 208.476562 185.285156 208.578125 185.152344 208.714844 C 185.015625 208.851562 184.910156 209.007812 184.835938 209.1875 C 184.761719 209.363281 184.726562 209.550781 184.726562 209.742188 L 184.726562 230.050781 C 184.726562 230.246094 184.761719 230.429688 184.835938 230.609375 C 184.910156 230.785156 185.015625 230.941406 185.152344 231.078125 C 185.285156 231.214844 185.441406 231.320312 185.621094 231.394531 C 185.796875 231.464844 185.984375 231.503906 186.175781 231.503906 L 206.445312 231.503906 C 206.640625 231.503906 206.824219 231.464844 207 231.394531 C 207.179688 231.320312 207.335938 231.214844 207.472656 231.078125 C 207.605469 230.941406 207.710938 230.785156 207.785156 230.609375 C 207.859375 230.429688 207.894531 230.246094 207.894531 230.050781 L 207.894531 209.742188 C 207.894531 209.550781 207.859375 209.363281 207.785156 209.1875 C 207.710938 209.007812 207.605469 208.851562 207.472656 208.714844 C 207.335938 208.578125 207.179688 208.476562 207 208.402344 C 206.824219 208.328125 206.640625 208.289062 206.445312 208.289062 Z M 160.109375 211.191406 L 177.488281 211.191406 L 177.488281 228.601562 L 174.507812 228.601562 C 174.125 226.390625 172.398438 224.511719 170.039062 224.273438 C 169.550781 224.226562 169.082031 224.273438 168.625 224.355469 L 175.667969 216.515625 L 173.511719 214.574219 L 167.945312 220.773438 L 163.949219 217.34375 L 162.066406 219.546875 L 167.875 224.535156 C 166.121094 225.152344 164.8125 226.714844 164.535156 228.601562 L 160.109375 228.601562 Z M 187.621094 211.191406 L 205 211.191406 L 205 228.601562 L 187.621094 228.601562 Z M 169.261719 227.160156 C 169.417969 227.144531 169.582031 227.144531 169.75 227.160156 C 170.835938 227.269531 171.695312 228.332031 171.695312 229.535156 L 171.695312 229.808594 C 171.667969 229.964844 171.667969 230.125 171.695312 230.28125 L 171.695312 243.835938 C 171.695312 244.027344 171.734375 244.207031 171.8125 244.382812 C 171.886719 244.558594 171.992188 244.714844 172.125 244.847656 C 172.261719 244.980469 172.417969 245.085938 172.59375 245.15625 C 172.769531 245.230469 172.953125 245.265625 173.140625 245.265625 C 173.332031 245.265625 173.515625 245.230469 173.691406 245.15625 C 173.867188 245.085938 174.023438 244.980469 174.160156 244.847656 C 174.292969 244.714844 174.398438 244.558594 174.472656 244.382812 C 174.550781 244.207031 174.589844 244.027344 174.589844 243.835938 C 174.589844 242.539062 175.648438 241.535156 176.992188 241.671875 C 178.074219 241.777344 178.933594 242.839844 178.933594 244.042969 L 178.933594 245.285156 C 178.9375 245.476562 178.976562 245.660156 179.050781 245.835938 C 179.125 246.011719 179.230469 246.164062 179.367188 246.296875 C 179.5 246.433594 179.65625 246.535156 179.832031 246.609375 C 180.007812 246.679688 180.191406 246.714844 180.382812 246.714844 C 180.574219 246.714844 180.757812 246.679688 180.933594 246.609375 C 181.109375 246.535156 181.265625 246.433594 181.398438 246.296875 C 181.535156 246.164062 181.640625 246.011719 181.714844 245.835938 C 181.789062 245.660156 181.828125 245.476562 181.832031 245.285156 C 181.832031 243.992188 182.886719 242.984375 184.230469 243.121094 C 185.316406 243.230469 186.175781 244.289062 186.175781 245.492188 L 186.175781 248.1875 C 186.175781 248.378906 186.214844 248.5625 186.289062 248.734375 C 186.367188 248.910156 186.46875 249.066406 186.605469 249.199219 C 186.742188 249.332031 186.898438 249.4375 187.074219 249.507812 C 187.25 249.582031 187.433594 249.617188 187.621094 249.617188 C 187.8125 249.617188 187.996094 249.582031 188.171875 249.507812 C 188.347656 249.4375 188.503906 249.332031 188.640625 249.199219 C 188.773438 249.066406 188.878906 248.910156 188.953125 248.734375 C 189.03125 248.5625 189.066406 248.378906 189.070312 248.1875 C 189.070312 246.890625 190.128906 245.886719 191.472656 246.023438 C 192.554688 246.128906 193.414062 247.191406 193.414062 248.394531 L 193.414062 261.96875 C 193.414062 265.992188 190.191406 269.222656 186.175781 269.222656 L 173.839844 269.222656 C 171.921875 269.222656 170.085938 268.464844 168.726562 267.105469 L 153.488281 251.886719 C 152.578125 250.96875 152.621094 249.507812 153.664062 248.65625 C 154.503906 247.964844 155.859375 248.105469 156.707031 248.953125 L 164.878906 257.140625 C 165.085938 257.347656 165.332031 257.480469 165.621094 257.539062 C 165.90625 257.59375 166.1875 257.566406 166.457031 257.457031 C 166.726562 257.34375 166.945312 257.164062 167.105469 256.921875 C 167.269531 256.675781 167.351562 256.410156 167.351562 256.117188 L 167.351562 229.328125 C 167.351562 228.195312 168.160156 227.28125 169.261719 227.160156 Z M 169.261719 227.160156 " fill-opacity="1" fill-rule="nonzero"/></g><g fill="#0f0f0f" fill-opacity="1"><g transform="translate(83.57533, 190.575706)"><g><path d="M 20.03125 0.3125 C 16.75 0.3125 13.8125 -0.398438 11.21875 -1.828125 C 8.625 -3.265625 6.585938 -5.273438 5.109375 -7.859375 C 3.640625 -10.453125 2.90625 -13.375 2.90625 -16.625 C 2.90625 -19.863281 3.640625 -22.769531 5.109375 -25.34375 C 6.585938 -27.914062 8.625 -29.914062 11.21875 -31.34375 C 13.8125 -32.78125 16.75 -33.5 20.03125 -33.5 C 22.894531 -33.5 25.453125 -32.9375 27.703125 -31.8125 C 29.960938 -30.695312 31.75 -29.066406 33.0625 -26.921875 L 29.703125 -24.65625 C 28.609375 -26.289062 27.21875 -27.519531 25.53125 -28.34375 C 23.84375 -29.164062 22.007812 -29.578125 20.03125 -29.578125 C 17.632812 -29.578125 15.476562 -29.039062 13.5625 -27.96875 C 11.644531 -26.894531 10.144531 -25.367188 9.0625 -23.390625 C 7.988281 -21.410156 7.453125 -19.15625 7.453125 -16.625 C 7.453125 -14.050781 7.988281 -11.785156 9.0625 -9.828125 C 10.144531 -7.867188 11.644531 -6.351562 13.5625 -5.28125 C 15.476562 -4.207031 17.632812 -3.671875 20.03125 -3.671875 C 22.007812 -3.671875 23.84375 -4.066406 25.53125 -4.859375 C 27.21875 -5.660156 28.609375 -6.882812 29.703125 -8.53125 L 33.0625 -6.25 C 31.75 -4.101562 29.953125 -2.472656 27.671875 -1.359375 C 25.398438 -0.242188 22.851562 0.3125 20.03125 0.3125 Z M 20.03125 0.3125 "/></g></g></g><g fill="#0f0f0f" fill-opacity="1"><g transform="translate(119.152746, 190.575706)"><g><path d="M 23.203125 -33.5 C 27.367188 -33.5 30.679688 -32.285156 33.140625 -29.859375 C 35.609375 -27.441406 36.84375 -23.914062 36.84375 -19.28125 L 36.84375 0 L 32.359375 0 L 32.359375 -18.828125 C 32.359375 -22.285156 31.492188 -24.921875 29.765625 -26.734375 C 28.035156 -28.546875 25.570312 -29.453125 22.375 -29.453125 C 18.789062 -29.453125 15.957031 -28.382812 13.875 -26.25 C 11.789062 -24.125 10.75 -21.1875 10.75 -17.4375 L 10.75 0 L 6.25 0 L 6.25 -46.890625 L 10.75 -46.890625 L 10.75 -27.4375 C 11.96875 -29.375 13.648438 -30.867188 15.796875 -31.921875 C 17.953125 -32.972656 20.421875 -33.5 23.203125 -33.5 Z M 23.203125 -33.5 "/></g></g></g><g fill="#0f0f0f" fill-opacity="1"><g transform="translate(161.934103, 190.575706)"><g><path d="M 35.203125 -15.234375 L 7.390625 -15.234375 C 7.648438 -11.773438 8.976562 -8.984375 11.375 -6.859375 C 13.78125 -4.734375 16.816406 -3.671875 20.484375 -3.671875 C 22.546875 -3.671875 24.4375 -4.035156 26.15625 -4.765625 C 27.882812 -5.503906 29.382812 -6.59375 30.65625 -8.03125 L 33.1875 -5.125 C 31.707031 -3.351562 29.859375 -2.003906 27.640625 -1.078125 C 25.429688 -0.148438 23 0.3125 20.34375 0.3125 C 16.9375 0.3125 13.914062 -0.410156 11.28125 -1.859375 C 8.644531 -3.316406 6.585938 -5.328125 5.109375 -7.890625 C 3.640625 -10.460938 2.90625 -13.375 2.90625 -16.625 C 2.90625 -19.863281 3.609375 -22.769531 5.015625 -25.34375 C 6.429688 -27.914062 8.367188 -29.914062 10.828125 -31.34375 C 13.296875 -32.78125 16.070312 -33.5 19.15625 -33.5 C 22.226562 -33.5 24.984375 -32.78125 27.421875 -31.34375 C 29.867188 -29.914062 31.785156 -27.925781 33.171875 -25.375 C 34.566406 -22.820312 35.265625 -19.90625 35.265625 -16.625 Z M 19.15625 -29.640625 C 15.945312 -29.640625 13.257812 -28.617188 11.09375 -26.578125 C 8.925781 -24.535156 7.691406 -21.867188 7.390625 -18.578125 L 30.96875 -18.578125 C 30.675781 -21.867188 29.441406 -24.535156 27.265625 -26.578125 C 25.097656 -28.617188 22.394531 -29.640625 19.15625 -29.640625 Z M 19.15625 -29.640625 "/></g></g></g><g fill="#0f0f0f" fill-opacity="1"><g transform="translate(200.102397, 190.575706)"><g><path d="M 20.03125 0.3125 C 16.75 0.3125 13.8125 -0.398438 11.21875 -1.828125 C 8.625 -3.265625 6.585938 -5.273438 5.109375 -7.859375 C 3.640625 -10.453125 2.90625 -13.375 2.90625 -16.625 C 2.90625 -19.863281 3.640625 -22.769531 5.109375 -25.34375 C 6.585938 -27.914062 8.625 -29.914062 11.21875 -31.34375 C 13.8125 -32.78125 16.75 -33.5 20.03125 -33.5 C 22.894531 -33.5 25.453125 -32.9375 27.703125 -31.8125 C 29.960938 -30.695312 31.75 -29.066406 33.0625 -26.921875 L 29.703125 -24.65625 C 28.609375 -26.289062 27.21875 -27.519531 25.53125 -28.34375 C 23.84375 -29.164062 22.007812 -29.578125 20.03125 -29.578125 C 17.632812 -29.578125 15.476562 -29.039062 13.5625 -27.96875 C 11.644531 -26.894531 10.144531 -25.367188 9.0625 -23.390625 C 7.988281 -21.410156 7.453125 -19.15625 7.453125 -16.625 C 7.453125 -14.050781 7.988281 -11.785156 9.0625 -9.828125 C 10.144531 -7.867188 11.644531 -6.351562 13.5625 -5.28125 C 15.476562 -4.207031 17.632812 -3.671875 20.03125 -3.671875 C 22.007812 -3.671875 23.84375 -4.066406 25.53125 -4.859375 C 27.21875 -5.660156 28.609375 -6.882812 29.703125 -8.53125 L 33.0625 -6.25 C 31.75 -4.101562 29.953125 -2.472656 27.671875 -1.359375 C 25.398438 -0.242188 22.851562 0.3125 20.03125 0.3125 Z M 20.03125 0.3125 "/></g></g></g><g fill="#0f0f0f" fill-opacity="1"><g transform="translate(235.679813, 190.575706)"><g><path d="M 18.578125 -16.6875 L 10.75 -9.484375 L 10.75 0 L 6.25 0 L 6.25 -46.890625 L 10.75 -46.890625 L 10.75 -15.109375 L 30.59375 -33.25 L 36.15625 -33.25 L 21.9375 -19.65625 L 37.484375 0 L 31.984375 0 Z M 18.578125 -16.6875 "/></g></g></g><g fill="#000000" fill-opacity="1"><g transform="translate(224.665493, 222.107827)"><g><path d="M 12.078125 -8.484375 C 13.128906 -8.484375 13.957031 -8.175781 14.5625 -7.5625 C 15.164062 -6.957031 15.46875 -6.0625 15.46875 -4.875 L 15.46875 0 L 14.34375 0 L 14.34375 -4.765625 C 14.34375 -5.640625 14.128906 -6.304688 13.703125 -6.765625 C 13.285156 -7.222656 12.691406 -7.453125 11.921875 -7.453125 C 11.046875 -7.453125 10.359375 -7.179688 9.859375 -6.640625 C 9.359375 -6.109375 9.109375 -5.367188 9.109375 -4.421875 L 9.109375 0 L 7.96875 0 L 7.96875 -4.765625 C 7.96875 -5.640625 7.753906 -6.304688 7.328125 -6.765625 C 6.910156 -7.222656 6.3125 -7.453125 5.53125 -7.453125 C 4.664062 -7.453125 3.976562 -7.179688 3.46875 -6.640625 C 2.96875 -6.109375 2.71875 -5.367188 2.71875 -4.421875 L 2.71875 0 L 1.578125 0 L 1.578125 -8.421875 L 2.671875 -8.421875 L 2.671875 -6.875 C 2.972656 -7.382812 3.390625 -7.78125 3.921875 -8.0625 C 4.453125 -8.34375 5.066406 -8.484375 5.765625 -8.484375 C 6.460938 -8.484375 7.070312 -8.332031 7.59375 -8.03125 C 8.113281 -7.726562 8.5 -7.285156 8.75 -6.703125 C 9.0625 -7.253906 9.503906 -7.6875 10.078125 -8 C 10.660156 -8.320312 11.328125 -8.484375 12.078125 -8.484375 Z M 12.078125 -8.484375 "/></g></g></g><g fill="#000000" fill-opacity="1"><g transform="translate(241.637412, 222.107827)"><g><path d="M 4.53125 -8.484375 C 5.625 -8.484375 6.460938 -8.207031 7.046875 -7.65625 C 7.640625 -7.101562 7.9375 -6.289062 7.9375 -5.21875 L 7.9375 0 L 6.84375 0 L 6.84375 -1.3125 C 6.59375 -0.875 6.21875 -0.53125 5.71875 -0.28125 C 5.21875 -0.0390625 4.628906 0.078125 3.953125 0.078125 C 3.015625 0.078125 2.265625 -0.144531 1.703125 -0.59375 C 1.148438 -1.039062 0.875 -1.632812 0.875 -2.375 C 0.875 -3.082031 1.132812 -3.65625 1.65625 -4.09375 C 2.175781 -4.53125 3 -4.75 4.125 -4.75 L 6.796875 -4.75 L 6.796875 -5.265625 C 6.796875 -5.992188 6.59375 -6.546875 6.1875 -6.921875 C 5.78125 -7.296875 5.191406 -7.484375 4.421875 -7.484375 C 3.878906 -7.484375 3.363281 -7.394531 2.875 -7.21875 C 2.382812 -7.039062 1.960938 -6.800781 1.609375 -6.5 L 1.109375 -7.34375 C 1.535156 -7.707031 2.046875 -7.988281 2.640625 -8.1875 C 3.234375 -8.382812 3.863281 -8.484375 4.53125 -8.484375 Z M 4.125 -0.8125 C 4.769531 -0.8125 5.320312 -0.957031 5.78125 -1.25 C 6.238281 -1.550781 6.578125 -1.976562 6.796875 -2.53125 L 6.796875 -3.90625 L 4.15625 -3.90625 C 2.71875 -3.90625 2 -3.40625 2 -2.40625 C 2 -1.90625 2.1875 -1.515625 2.5625 -1.234375 C 2.9375 -0.953125 3.457031 -0.8125 4.125 -0.8125 Z M 4.125 -0.8125 "/></g></g></g><g fill="#000000" fill-opacity="1"><g transform="translate(251.075148, 222.107827)"><g><path d="M 6.015625 -0.515625 C 5.804688 -0.316406 5.539062 -0.164062 5.21875 -0.0625 C 4.90625 0.03125 4.578125 0.078125 4.234375 0.078125 C 3.453125 0.078125 2.847656 -0.132812 2.421875 -0.5625 C 1.992188 -0.988281 1.78125 -1.59375 1.78125 -2.375 L 1.78125 -7.453125 L 0.265625 -7.453125 L 0.265625 -8.421875 L 1.78125 -8.421875 L 1.78125 -10.25 L 2.90625 -10.25 L 2.90625 -8.421875 L 5.46875 -8.421875 L 5.46875 -7.453125 L 2.90625 -7.453125 L 2.90625 -2.4375 C 2.90625 -1.9375 3.03125 -1.550781 3.28125 -1.28125 C 3.53125 -1.019531 3.894531 -0.890625 4.375 -0.890625 C 4.601562 -0.890625 4.828125 -0.925781 5.046875 -1 C 5.265625 -1.082031 5.453125 -1.191406 5.609375 -1.328125 Z M 6.015625 -0.515625 "/></g></g></g><g fill="#000000" fill-opacity="1"><g transform="translate(257.56959, 222.107827)"><g><path d="M 8.90625 -3.859375 L 1.875 -3.859375 C 1.9375 -2.984375 2.269531 -2.273438 2.875 -1.734375 C 3.488281 -1.191406 4.257812 -0.921875 5.1875 -0.921875 C 5.707031 -0.921875 6.1875 -1.015625 6.625 -1.203125 C 7.0625 -1.390625 7.441406 -1.664062 7.765625 -2.03125 L 8.40625 -1.296875 C 8.03125 -0.847656 7.5625 -0.503906 7 -0.265625 C 6.4375 -0.0351562 5.820312 0.078125 5.15625 0.078125 C 4.289062 0.078125 3.523438 -0.101562 2.859375 -0.46875 C 2.191406 -0.84375 1.671875 -1.351562 1.296875 -2 C 0.921875 -2.644531 0.734375 -3.378906 0.734375 -4.203125 C 0.734375 -5.023438 0.910156 -5.757812 1.265625 -6.40625 C 1.628906 -7.0625 2.125 -7.570312 2.75 -7.9375 C 3.375 -8.300781 4.070312 -8.484375 4.84375 -8.484375 C 5.625 -8.484375 6.320312 -8.300781 6.9375 -7.9375 C 7.5625 -7.570312 8.046875 -7.066406 8.390625 -6.421875 C 8.742188 -5.773438 8.921875 -5.035156 8.921875 -4.203125 Z M 4.84375 -7.5 C 4.03125 -7.5 3.347656 -7.238281 2.796875 -6.71875 C 2.253906 -6.207031 1.945312 -5.535156 1.875 -4.703125 L 7.84375 -4.703125 C 7.769531 -5.535156 7.457031 -6.207031 6.90625 -6.71875 C 6.351562 -7.238281 5.664062 -7.5 4.84375 -7.5 Z M 4.84375 -7.5 "/></g></g></g></svg>